<?xml version="1.0" encoding="utf-8"?>
<!-- Generator: Adobe Illustrator 23.0.6, SVG Export Plug-In . SVG Version: 6.00 Build 0)  -->
<svg version="1.1" id="Calque_1" xmlns="http://www.w3.org/2000/svg" xmlns:xlink="http://www.w3.org/1999/xlink" x="0px" y="0px"
	 viewBox="0 0 246 120" style="enable-background:new 0 0 246 120;" xml:space="preserve">
<style type="text/css">
	.st0{fill:#E42535;}
	.st1{fill:#4A5F70;}
	.st2{fill:#38B5B8;}
</style>
<g>
	<polygon points="106.06,80.91 105.39,80.91 105.39,29.8 106.06,29.8 106.06,80.91 	"/>
	<path d="M28.22,42.47h10.52c6.15,0,9.86,3.64,9.86,8.9v0.07c0,5.96-4.64,9.05-10.41,9.05h-4.3v7.73h-5.67V42.47z M38.37,55.45
		c2.83,0,4.49-1.69,4.49-3.9v-0.07c0-2.54-1.77-3.9-4.6-3.9h-4.38v7.87H38.37z"/>
	<path d="M51.11,42.47h19.42v5.04H56.74v5.22h12.14v5.04H56.74v5.41h13.98v5.04H51.11V42.47z"/>
	<path d="M72.17,55.42v-0.08c0-7.32,5.52-13.31,13.43-13.31c4.86,0,7.76,1.62,10.15,3.97l-3.61,4.16c-1.99-1.8-4.01-2.9-6.59-2.9
		c-4.34,0-7.47,3.6-7.47,8.02v0.07c0,4.41,3.05,8.1,7.47,8.1c2.94,0,4.75-1.18,6.77-3.02l3.61,3.64c-2.65,2.83-5.59,4.6-10.56,4.6
		C77.8,68.66,72.17,62.81,72.17,55.42z"/>
	<path d="M16.78,57.22c0,4.09-2.1,6.18-5.56,6.18c-3.46,0-5.55-2.17-5.55-6.37V42.47H0v14.72c0,7.58,4.23,11.44,11.15,11.44
		c6.91,0,11.29-3.83,11.29-11.63l0.05-17.64l-5.71,1.95V57.22z"/>
	<polygon class="st0" points="22.49,24.49 22.49,38.96 22.5,39.33 95.35,14.86 95.35,0 	"/>
	<g>
		<g>
			<path d="M0.63,74.16v2.38c0,0.66,0.12,1.18,0.91,1.18c0.79,0,0.85-0.53,0.85-1.17v-2.39h0.45v2.57c0,0.83-0.37,1.37-1.32,1.37
				c-0.97,0-1.4-0.51-1.4-1.37v-2.57H0.63z"/>
			<path d="M4.51,74.16h0.52l1.95,3.04h0.01v-3.04h0.45v3.85H6.91l-1.95-3.04H4.95v3.04H4.51V74.16z"/>
			<path d="M9.11,74.16h0.51v3.85H9.11V74.16z"/>
			<path d="M12.82,78.01h-0.51l-1.46-3.85h0.55l1.21,3.19l1.16-3.19h0.45L12.82,78.01z"/>
			<path d="M15.45,74.16h2.12v0.38h-1.61v1.27h1.35v0.38h-1.35v1.43h1.72v0.38h-2.23V74.16z"/>
			<path d="M18.99,74.16h1.24c0.39,0,1.04,0.21,1.04,0.97c0,0.47-0.35,0.93-0.79,1.08l1.28,1.8h-0.63l-1.11-1.63h-0.52v1.63h-0.51
				V74.16z M19.51,75.97c0.07,0.01,0.14,0.02,0.22,0.02c0.64,0,1.01-0.28,1.01-0.85c0-0.37-0.3-0.6-0.72-0.6h-0.51V75.97z"/>
			<path d="M22.79,77.41c0.35,0.17,0.69,0.31,1.08,0.31c0.38,0,0.72-0.22,0.72-0.62c0-0.93-1.78-0.92-1.78-2.01
				c0-0.33,0.26-1.02,1.15-1.02c0.31,0,0.61,0.05,0.9,0.15v0.47c-0.3-0.12-0.59-0.24-0.91-0.24c-0.47,0-0.66,0.34-0.66,0.55
				c0,0.79,1.81,0.85,1.81,2.01c0,0.37-0.27,1.1-1.31,1.1c-0.34,0-0.68-0.08-1-0.18V77.41z"/>
			<path d="M26.56,74.16h0.51v3.85h-0.51V74.16z"/>
			<path d="M29.67,74.55h-1.36v-0.38h3.23v0.38h-1.36v3.46h-0.51V74.55z"/>
			<path d="M32.78,74.16h2.12v0.38h-1.61v1.27h1.35v0.38h-1.35v1.43h1.72v0.38h-2.23V74.16z M33.84,73.1h0.58l-0.71,0.77h-0.45
				L33.84,73.1z"/>
			<path d="M38.63,74.16h1.24c0.55,0,1.07,0.27,1.07,1c0,1.08-0.9,1.32-1.81,1.31v1.53h-0.51V74.16z M39.14,76.1
				c0.77,0.04,1.27-0.18,1.27-0.89c0-0.48-0.36-0.66-0.67-0.66h-0.6V76.1z"/>
			<path d="M43,74.16h0.51l1.52,3.85h-0.55l-0.44-1.09h-1.69l-0.43,1.09h-0.45L43,74.16z M43.9,76.54l-0.7-1.76l-0.69,1.76H43.9z"/>
			<path d="M46.27,74.16h1.24c0.39,0,1.04,0.21,1.04,0.97c0,0.47-0.35,0.93-0.79,1.08l1.28,1.8h-0.63l-1.11-1.63h-0.52v1.63h-0.51
				V74.16z M46.78,75.97c0.07,0.01,0.14,0.02,0.22,0.02c0.64,0,1.01-0.28,1.01-0.85c0-0.37-0.3-0.6-0.72-0.6h-0.51V75.97z"/>
			<path d="M50.3,74.16h0.51v3.85H50.3V74.16z"/>
			<path d="M52.25,77.41c0.35,0.17,0.69,0.31,1.08,0.31c0.38,0,0.72-0.22,0.72-0.62c0-0.93-1.78-0.92-1.78-2.01
				c0-0.33,0.26-1.02,1.15-1.02c0.31,0,0.61,0.05,0.9,0.15v0.47c-0.3-0.12-0.59-0.24-0.91-0.24c-0.47,0-0.66,0.34-0.66,0.55
				c0,0.79,1.81,0.85,1.81,2.01c0,0.37-0.27,1.1-1.31,1.1c-0.34,0-0.68-0.08-1-0.18V77.41z"/>
			<path d="M55.8,76.22h1.15v0.38H55.8V76.22z"/>
			<path d="M58.42,74.16h2.12v0.38h-1.61v1.27h1.35v0.38h-1.35v1.43h1.72v0.38h-2.23V74.16z"/>
			<path d="M61.72,77.41c0.35,0.17,0.69,0.31,1.08,0.31c0.38,0,0.72-0.22,0.72-0.62c0-0.93-1.78-0.92-1.78-2.01
				c0-0.33,0.26-1.02,1.15-1.02c0.31,0,0.61,0.05,0.9,0.15v0.47c-0.3-0.12-0.59-0.24-0.91-0.24c-0.47,0-0.66,0.34-0.66,0.55
				c0,0.79,1.81,0.85,1.81,2.01c0,0.37-0.27,1.1-1.31,1.1c-0.34,0-0.68-0.08-1-0.18V77.41z"/>
			<path d="M66.41,74.55h-1.36v-0.38h3.23v0.38h-1.36v3.46h-0.51V74.55z"/>
			<path d="M74.73,74.73c-0.39-0.13-0.79-0.28-1.3-0.28c-0.94,0-1.24,0.84-1.24,1.64c0,0.79,0.3,1.63,1.24,1.63
				c0.56,0,0.93-0.14,1.3-0.36v0.44c-0.4,0.23-0.79,0.3-1.3,0.3c-1.19,0-1.78-0.92-1.78-2.02c0-1.11,0.6-2.02,1.78-2.02
				c0.47,0,0.89,0.08,1.3,0.18V74.73z"/>
			<path d="M76.21,74.16h1.24c0.39,0,1.04,0.21,1.04,0.97c0,0.47-0.35,0.93-0.79,1.08l1.28,1.8h-0.63l-1.11-1.63h-0.52v1.63h-0.51
				V74.16z M76.72,75.97c0.07,0.01,0.14,0.02,0.22,0.02c0.64,0,1.01-0.28,1.01-0.85c0-0.37-0.3-0.6-0.72-0.6h-0.51V75.97z"/>
			<path d="M80.24,74.16h2.12v0.38h-1.61v1.27h1.35v0.38h-1.35v1.43h1.72v0.38h-2.23V74.16z M81.3,73.1h0.58l-0.71,0.77h-0.45
				L81.3,73.1z"/>
			<path d="M84.71,74.55h-1.36v-0.38h3.23v0.38h-1.36v3.46h-0.51V74.55z"/>
			<path d="M87.82,74.16h2.12v0.38h-1.61v1.27h1.35v0.38h-1.35v1.43h1.72v0.38h-2.23V74.16z"/>
			<path d="M91.37,74.16h0.51v3.85h-0.51V74.16z"/>
			<path d="M93.56,74.16h0.51v3.46h1.73v0.38h-2.24V74.16z"/>
		</g>
	</g>
	<g>
		<path class="st1" d="M196.39,46.62v-3.81c0-1.03,0.66-1.71,1.68-1.71c1.03,0,1.69,0.68,1.69,1.71v3.81c0,1.03-0.67,1.71-1.69,1.71
			C197.05,48.34,196.39,47.65,196.39,46.62z M198.69,46.62v-3.81c0-0.38-0.23-0.63-0.61-0.63c-0.38,0-0.6,0.25-0.6,0.63v3.81
			c0,0.38,0.22,0.63,0.6,0.63C198.46,47.25,198.69,47,198.69,46.62z"/>
		<path class="st1" d="M204.66,45.87v0.65c0,1.01-0.65,1.67-1.65,1.67h-1.8v-6.94h1.71c1,0,1.65,0.67,1.65,1.67v0.69
			c0,0.43-0.12,0.79-0.33,1.07C204.49,44.97,204.66,45.38,204.66,45.87z M202.29,44.19h0.63c0.35,0,0.56-0.23,0.56-0.58v-0.69
			c0-0.35-0.21-0.58-0.56-0.58h-0.63V44.19z M203.57,45.87c0-0.35-0.21-0.59-0.56-0.59h-0.72v1.83h0.72c0.35,0,0.56-0.23,0.56-0.59
			V45.87z"/>
		<path class="st1" d="M205.73,46.62v-0.33h1.08v0.33c0,0.38,0.23,0.63,0.61,0.63c0.38,0,0.6-0.25,0.6-0.63v-0.66
			c0-0.38-0.22-0.63-0.6-0.63c-1.04,0-1.69-0.68-1.69-1.71v-0.81c0-1.03,0.66-1.71,1.69-1.71c1.03,0,1.68,0.68,1.68,1.71v0.32h-1.08
			v-0.32c0-0.38-0.22-0.63-0.6-0.63c-0.38,0-0.61,0.25-0.61,0.63v0.81c0,0.38,0.23,0.63,0.61,0.63c1.03,0,1.68,0.69,1.68,1.71v0.66
			c0,1.03-0.66,1.71-1.68,1.71C206.39,48.34,205.73,47.65,205.73,46.62z"/>
		<path class="st1" d="M213.22,42.33h-1.76v1.7h1.51v1.08h-1.51v1.99h1.76v1.08h-2.84v-6.94h2.84V42.33z"/>
		<path class="st1" d="M217.3,45.25c0.31,0.21,0.5,0.55,0.5,0.97v1.97h-1.08v-1.97c0-0.34-0.21-0.57-0.56-0.57h-0.63v2.54h-1.08
			v-6.94h1.71c1,0,1.65,0.67,1.65,1.67v1.06C217.8,44.51,217.63,44.94,217.3,45.25z M216.72,42.91c0-0.35-0.21-0.58-0.56-0.58h-0.63
			v2.23h0.63c0.35,0,0.56-0.23,0.56-0.58V42.91z"/>
		<path class="st1" d="M222.54,41.25l-1.35,6.94h-1.17l-1.37-6.94h1.1l0.85,4.92l0.82-4.92H222.54z"/>
		<path class="st1" d="M226.69,48.19h-1.11l-0.19-1.17h-1.27l-0.21,1.17h-1.1l1.37-6.94h1.17L226.69,48.19z M225.22,45.93
			l-0.46-2.77l-0.47,2.77H225.22z"/>
		<path class="st1" d="M227.98,42.33h-1.06v-1.08h3.22v1.08h-1.07v5.86h-1.08V42.33z"/>
		<path class="st1" d="M230.96,46.62v-3.81c0-1.03,0.66-1.71,1.68-1.71c1.03,0,1.69,0.68,1.69,1.71v3.81c0,1.03-0.67,1.71-1.69,1.71
			C231.62,48.34,230.96,47.65,230.96,46.62z M233.26,46.62v-3.81c0-0.38-0.23-0.63-0.61-0.63c-0.38,0-0.6,0.25-0.6,0.63v3.81
			c0,0.38,0.22,0.63,0.6,0.63C233.03,47.25,233.26,47,233.26,46.62z"/>
		<path class="st1" d="M235.78,48.19v-6.94h1.08v6.94H235.78z"/>
		<path class="st1" d="M241.24,45.25c0.31,0.21,0.5,0.55,0.5,0.97v1.97h-1.08v-1.97c0-0.34-0.21-0.57-0.56-0.57h-0.63v2.54h-1.08
			v-6.94h1.71c1,0,1.65,0.67,1.65,1.67v1.06C241.74,44.51,241.57,44.94,241.24,45.25z M240.66,42.91c0-0.35-0.21-0.58-0.56-0.58
			h-0.63v2.23h0.63c0.35,0,0.56-0.23,0.56-0.58V42.91z"/>
		<path class="st1" d="M246,42.33h-1.76v1.7h1.51v1.08h-1.51v1.99H246v1.08h-2.84v-6.94H246V42.33z"/>
		<path class="st1" d="M196.38,52h1.59c1,0,1.66,0.68,1.66,1.71v3.51c0,1.03-0.66,1.71-1.66,1.71h-1.59V52z M197.97,58.16
			c0.54,0,0.88-0.37,0.88-0.93v-3.51c0-0.56-0.34-0.93-0.88-0.93h-0.81v5.38H197.97z"/>
		<path class="st1" d="M203.97,52.78h-2.03v2.27h1.78v0.78h-1.78v2.33h2.03v0.78h-2.8V52h2.8V52.78z"/>
		<path class="st1" d="M204.98,57.38v-0.25h0.78v0.25c0,0.56,0.34,0.93,0.88,0.93c0.53,0,0.88-0.37,0.88-0.93v-0.55
			c0-0.56-0.35-0.93-0.88-0.93c-1,0-1.66-0.68-1.66-1.71v-0.62c0-1.03,0.66-1.71,1.66-1.71c1,0,1.66,0.68,1.66,1.71v0.25h-0.78
			v-0.25c0-0.56-0.35-0.93-0.88-0.93c-0.54,0-0.88,0.37-0.88,0.93v0.62c0,0.56,0.34,0.93,0.88,0.93c1,0,1.66,0.68,1.66,1.71v0.55
			c0,1.03-0.66,1.71-1.66,1.71C205.64,59.09,204.98,58.4,204.98,57.38z"/>
		<path class="st1" d="M211.68,57.38v-0.33h1.08v0.33c0,0.38,0.23,0.63,0.61,0.63c0.38,0,0.6-0.25,0.6-0.63v-0.66
			c0-0.38-0.22-0.63-0.6-0.63c-1.04,0-1.69-0.68-1.69-1.71v-0.81c0-1.03,0.66-1.71,1.69-1.71c1.03,0,1.68,0.68,1.68,1.71v0.32h-1.08
			v-0.32c0-0.38-0.22-0.63-0.6-0.63c-0.38,0-0.61,0.25-0.61,0.63v0.81c0,0.38,0.23,0.63,0.61,0.63c1.03,0,1.68,0.69,1.68,1.71v0.66
			c0,1.03-0.66,1.71-1.68,1.71C212.34,59.09,211.68,58.4,211.68,57.38z"/>
		<path class="st1" d="M219.61,57.38c0,1.03-0.67,1.71-1.69,1.71c-1.03,0-1.68-0.68-1.68-1.71v-3.81c0-1.03,0.66-1.71,1.68-1.71
			c1.03,0,1.69,0.68,1.69,1.71v0.32h-1.08v-0.32c0-0.38-0.23-0.63-0.61-0.63c-0.38,0-0.6,0.25-0.6,0.63v3.81
			c0,0.38,0.22,0.63,0.6,0.63c0.38,0,0.61-0.25,0.61-0.63v-0.33h1.08V57.38z"/>
		<path class="st1" d="M220.78,58.94V52h1.08v6.94H220.78z"/>
		<path class="st1" d="M226.23,53.08h-1.76v1.7h1.51v1.08h-1.51v1.99h1.76v1.08h-2.84V52h2.84V53.08z"/>
		<path class="st1" d="M230.75,52v6.94h-0.83l-1.46-4.03v4.03h-1.01V52h0.82l1.47,4.03V52H230.75z"/>
		<path class="st1" d="M235.56,57.38c0,1.03-0.67,1.71-1.69,1.71c-1.03,0-1.68-0.68-1.68-1.71v-3.81c0-1.03,0.66-1.71,1.68-1.71
			c1.03,0,1.69,0.68,1.69,1.71v0.32h-1.08v-0.32c0-0.38-0.23-0.63-0.61-0.63c-0.38,0-0.6,0.25-0.6,0.63v3.81
			c0,0.38,0.22,0.63,0.6,0.63c0.38,0,0.61-0.25,0.61-0.63v-0.33h1.08V57.38z"/>
		<path class="st1" d="M239.57,53.08h-1.76v1.7h1.51v1.08h-1.51v1.99h1.76v1.08h-2.84V52h2.84V53.08z"/>
		<path class="st1" d="M240.55,57.38v-0.33h1.08v0.33c0,0.38,0.23,0.63,0.61,0.63c0.38,0,0.6-0.25,0.6-0.63v-0.66
			c0-0.38-0.22-0.63-0.6-0.63c-1.04,0-1.69-0.68-1.69-1.71v-0.81c0-1.03,0.66-1.71,1.69-1.71c1.03,0,1.68,0.68,1.68,1.71v0.32h-1.08
			v-0.32c0-0.38-0.22-0.63-0.6-0.63c-0.38,0-0.61,0.25-0.61,0.63v0.81c0,0.38,0.23,0.63,0.61,0.63c1.03,0,1.68,0.69,1.68,1.71v0.66
			c0,1.03-0.66,1.71-1.68,1.71C241.21,59.09,240.55,58.4,240.55,57.38z"/>
		<path class="st1" d="M196.38,62.75h1.59c1,0,1.66,0.68,1.66,1.71v3.52c0,1.03-0.66,1.71-1.66,1.71h-1.59V62.75z M197.97,68.91
			c0.54,0,0.88-0.37,0.88-0.93v-3.52c0-0.56-0.34-0.93-0.88-0.93h-0.81v5.38H197.97z"/>
		<path class="st1" d="M203.97,63.53h-2.03v2.28h1.78v0.78h-1.78v2.33h2.03v0.78h-2.8v-6.94h2.8V63.53z"/>
		<path class="st1" d="M208.32,68.91h1.84v0.78h-2.62v-6.94h0.78V68.91z"/>
		<path class="st1" d="M211.27,64.03h-0.31v-1.28h0.78v1.28l-0.24,0.8h-0.46L211.27,64.03z"/>
		<path class="st1" d="M216.59,68.13c0,1.03-0.67,1.71-1.69,1.71c-1.03,0-1.68-0.68-1.68-1.71v-5.37h1.08v5.37
			c0,0.38,0.22,0.63,0.6,0.63c0.38,0,0.61-0.25,0.61-0.63v-5.37h1.08V68.13z"/>
		<path class="st1" d="M221.39,62.75v6.94h-0.83l-1.46-4.03v4.03h-1.01v-6.94h0.82l1.47,4.03v-4.03H221.39z"/>
		<path class="st1" d="M222.92,69.69v-6.94H224v6.94H222.92z"/>
		<path class="st1" d="M228.87,62.75l-1.35,6.94h-1.17l-1.37-6.94h1.1l0.85,4.92l0.82-4.92H228.87z"/>
		<path class="st1" d="M232.7,63.84h-1.76v1.7h1.51v1.08h-1.51v1.99h1.76v1.08h-2.84v-6.94h2.84V63.84z"/>
		<path class="st1" d="M236.78,66.75c0.31,0.21,0.5,0.55,0.5,0.97v1.97h-1.08v-1.97c0-0.34-0.21-0.57-0.56-0.57h-0.63v2.54h-1.08
			v-6.94h1.71c1,0,1.65,0.67,1.65,1.66v1.06C237.28,66.01,237.11,66.44,236.78,66.75z M236.2,64.42c0-0.35-0.21-0.58-0.56-0.58
			h-0.63v2.23h0.63c0.35,0,0.56-0.23,0.56-0.58V64.42z"/>
		<path class="st1" d="M238.46,68.13v-0.33h1.08v0.33c0,0.38,0.23,0.63,0.61,0.63c0.38,0,0.6-0.25,0.6-0.63v-0.66
			c0-0.38-0.22-0.63-0.6-0.63c-1.04,0-1.69-0.68-1.69-1.71v-0.81c0-1.03,0.66-1.71,1.69-1.71c1.03,0,1.68,0.68,1.68,1.71v0.32h-1.08
			v-0.32c0-0.38-0.22-0.63-0.6-0.63c-0.38,0-0.61,0.25-0.61,0.63v0.81c0,0.38,0.23,0.63,0.61,0.63c1.03,0,1.68,0.68,1.68,1.71v0.66
			c0,1.03-0.66,1.71-1.68,1.71C239.12,69.84,238.46,69.15,238.46,68.13z"/>
	</g>
	<g>
		<path class="st2" d="M134.72,52.02c-3.64,1.73-6.12,0.74-7.97-0.85c-1.17-1.01-1.74-1.45-2.74-1.58
			c-0.59-0.08-0.98-0.05-1.46,0.24c-0.34,0.21-0.67,0.8-0.55,1.22c0.55,1.96,2.13,3.88,4.53,4.75c3.5,1.26,7.22-0.43,8.72-3.15
			c0.11-0.2,0.21-0.34,0.33-0.6C135.69,51.81,135.17,51.81,134.72,52.02z"/>
		<g>
			<path class="st1" d="M177.7,62.72c-5.73,0-9.58-3.94-9.58-9.81V36.79h5V52.9c0,1.45,0.45,4.82,4.58,4.82
				c2.02,0,4.35-0.55,4.35-4.82V36.79l5-1.94V52.9C187.04,58.96,183.46,62.72,177.7,62.72z"/>
			<path class="st1" d="M154.48,62.28c-5.22,0-7.36-1.97-9.62-4.05l3.36-3.7c2.07,1.9,3.1,2.85,6.69,2.75
				c3.03-0.08,3.64-1.35,3.64-3.38c0-0.95,0-2.13-3.93-2.7c-3.92-0.56-8.41-1.96-8.41-7.82c0-4.7,3.44-7.73,8.77-7.73
				c3.17,0,6.12,1.15,8.76,3.42l-3.26,3.79c-1.76-1.51-3.51-2.22-5.5-2.22c-3.77,0-3.77,1.98-3.77,2.73c0,1.37,0,2.28,4.13,2.87
				c5.45,0.79,8.21,3.36,8.21,7.64c0,5.11-3.18,8.24-8.51,8.37C154.84,62.28,154.66,62.28,154.48,62.28z"/>
		</g>
		<path class="st1" d="M128.96,62.41c-1.53,0-3.08-0.26-4.59-0.81c-3.4-1.23-6.1-3.7-7.63-6.97c-1.51-3.25-1.67-6.89-0.44-10.25
			c2.54-6.95,10.3-10.55,17.28-8.02c3.4,1.23,6.1,3.7,7.63,6.97c1.51,3.25,1.67,6.89,0.44,10.25l0,0
			C139.66,59.02,134.47,62.41,128.96,62.41z M128.98,40.55c-3.47,0-6.74,2.13-7.99,5.55c-0.77,2.11-0.67,4.39,0.28,6.42
			c0.96,2.05,2.66,3.61,4.8,4.38c4.4,1.59,9.29-0.67,10.89-5.04l0,0c0.77-2.11,0.67-4.39-0.28-6.42c-0.96-2.05-2.66-3.6-4.8-4.38
			C130.93,40.71,129.95,40.55,128.98,40.55z"/>
		<g>
			<g>
				<g>
					<path class="st2" d="M133.6,67.71c4.86,0,7.44,5.07,7.44,5.07l-1.38,0.85c-1.58-1.69-4.2-1.62-6.07-0.9
						c-3.06,1.16-5.17,4.01-9.23,4.01c-4.91,0-7.44-5.07-7.44-5.07l1.55-1.01c1.53,1.69,4.98,1.62,6.66,0.71
						C127.96,69.84,129.48,67.71,133.6,67.71z"/>
				</g>
			</g>
			<g>
				<path class="st2" d="M184.37,78.26c-0.71,0-1.44-0.15-2.14-0.46c-0.84-0.37-2.22-1.43-1.96-4.45c0.2-2.34,1.49-3.63,3.65-3.63
					c0.99,0,1.86,0.33,2.44,0.92c0.46,0.47,0.71,1.09,0.69,1.72c-0.04,1.32-1.14,2.23-2.82,2.31c-0.44,0.02-0.83-0.03-1.17-0.08
					c-0.49-0.07-0.77-0.11-1.08,0.04c0.08,0.67,0.32,1.34,0.93,1.6c0.51,0.22,1.84,0.66,3.07-0.15l0.94,1.43
					C186.17,78.01,185.29,78.26,184.37,78.26z M182.44,72.83c0.3,0,0.59,0.04,0.85,0.08c0.29,0.04,0.57,0.08,0.85,0.07
					c0.2-0.01,1.18-0.09,1.19-0.65c0.01-0.22-0.11-0.39-0.21-0.49c-0.25-0.26-0.68-0.4-1.21-0.4c-0.8,0-1.56,0.19-1.85,1.42
					C182.19,72.84,182.32,72.83,182.44,72.83z"/>
				<path class="st2" d="M174.56,78.31l-0.12-1.03c-0.12-1.05-0.61-3.79-2.49-6.71l1.44-0.92c1.55,2.42,2.24,4.75,2.55,6.25
					c0.24-0.23,0.5-0.59,0.75-1.19c0.59-1.37,0.55-3.16,0.51-4.47l0-0.1l1.71-0.04l0,0.1c0.04,1.46,0.09,3.47-0.65,5.19
					c-0.89,2.06-2.02,2.4-2.62,2.58L174.56,78.31z"/>
				<g>
					<path class="st2" d="M170.75,77.99c0,0-0.74,0-1.2,0c-0.34,0-0.53-0.55-0.53-0.55V70.1h1.71c0,0,0,5.59,0,7.45
						C170.72,77.8,170.75,77.99,170.75,77.99z"/>
					<path class="st2" d="M167.1,78.19c-1.57,0-3.15-1.15-3.15-3.36V70.1h1.71v4.73c0,1.22,0.75,1.66,1.44,1.66
						c1.16,0,1.76-1.07,1.93-2.06l1.68,0.29C170.34,76.83,168.93,78.19,167.1,78.19z"/>
				</g>
				<g>
					<path class="st2" d="M151.68,77.93h-6.82V66.5h7.13c-0.18,0.48-0.32,0.92-0.4,1.44c-0.02,0.15-0.15,0.27-0.31,0.27h-3.9
						c-0.17,0-0.31,0.14-0.31,0.31v7.39c0,0.17,0.14,0.31,0.31,0.31h4.61v1.4C151.99,77.79,151.85,77.93,151.68,77.93z"/>
					<path class="st2" d="M150.48,73.03h-4.71v-1.71h4.71c0.17,0,0.31,0.14,0.31,0.31v1.08C150.79,72.89,150.65,73.03,150.48,73.03z
						"/>
				</g>
				<g>
					<rect x="152.95" y="69.51" class="st2" width="4.62" height="1.71"/>
					<g>
						<polygon class="st2" points="153.43,81.69 153.43,81.69 153.44,81.69 						"/>
						<path class="st2" d="M162.63,77.02l-0.34-0.78c-0.33,0.12-0.79,0.28-1.06,0.16c-0.12-0.05-0.31-0.13-0.31-0.99v-6.21
							c0-1.66-1-3.34-3.23-3.34c-2.11,0-3.4,1.22-3.4,3.26v8.48c0,1.58-0.7,1.99-1.67,2.56l-0.11,0.06l0.01,0.01h0.76
							c1.45,0,2.76-1.13,2.77-2.58c0-0.02,0-0.03,0-0.05v-8.48c0-1.09,0.48-1.55,1.64-1.55c1.26,0,1.52,0.77,1.52,1.63v6.21
							c0,0.85,0.14,2.03,1.33,2.55c0.89,0.39,1.78,0.07,2.37-0.14L162.63,77.02z"/>
					</g>
				</g>
			</g>
		</g>
		<path class="st1" d="M136.13,50c-0.07-0.02-0.14,0.03-0.25,0.1c-1.63,1.07-3.72,1.4-5.69,0.68c-1.6-0.58-2.88-1.74-3.59-3.28
			c-0.71-1.52-0.78-3.23-0.21-4.81c0.07-0.19,0.14-0.36,0.08-0.42c-0.05-0.05-0.15-0.02-0.3,0.04c-1.81,0.75-3.32,2.22-4.04,4.19
			c-0.54,1.48-0.57,3.05-0.13,4.53c-0.11-0.43,0.21-1.01,0.55-1.21c0.48-0.29,0.87-0.31,1.46-0.24c1,0.13,1.56,0.57,2.74,1.58
			c1.85,1.59,4.33,2.58,7.97,0.85c0.44-0.21,0.93-0.21,0.85,0.02c0.09-0.19,0.17-0.38,0.25-0.58c0.14-0.37,0.24-0.75,0.31-1.14
			C136.16,50.17,136.2,50.02,136.13,50z"/>
	</g>
</g>
</svg>
